
<svg xmlns="http://www.w3.org/2000/svg" version="1.1" xmlns:xlink="http://www.w3.org/1999/xlink" xmlns:svgjs="http://svgjs.dev/svgjs" width="2000" height="1247" viewBox="0 0 2000 1247"><g transform="matrix(1,0,0,1,-1.2121212121211329,0.504858299595071)"><svg viewBox="0 0 396 247" data-background-color="#ffffff" preserveAspectRatio="xMidYMid meet" height="1247" width="2000" xmlns="http://www.w3.org/2000/svg" xmlns:xlink="http://www.w3.org/1999/xlink"><g id="tight-bounds" transform="matrix(1,0,0,1,0.2400000000000091,-0.09999999999999432)"><svg viewBox="0 0 395.52 247.2" height="247.2" width="395.52"><g><svg></svg></g><g><svg viewBox="0 0 395.52 247.2" height="247.2" width="395.52"><g transform="matrix(1,0,0,1,75.54432,79.61015827613727)"><svg viewBox="0 0 244.43135999999998 87.97968344772545" height="87.97968344772545" width="244.43135999999998"><g><svg viewBox="0 0 244.43135999999998 87.97968344772545" height="87.97968344772545" width="244.43135999999998"><g><svg viewBox="0 0 244.43136 87.97968344772546" height="87.97968344772545" width="244.43135999999998"><g><svg viewBox="0 0 244.43136 87.97968344772546" height="87.97968344772546" width="244.43136"><g id="textblocktransform"><svg viewBox="0 0 244.43136 87.97968344772546" height="87.97968344772546" width="244.43136" id="textblock"><g><svg viewBox="0 0 244.43136 87.97968344772546" height="87.97968344772546" width="244.43136"><g transform="matrix(1,0,0,1,0,0)"><svg width="244.43136" viewBox="1.2200000286102295 -30.399999618530273 91.7699966430664 33.040000915527344" height="87.97968344772546" data-palette-color="#ff0000"><path d="M14.4 0L14.4-3.91 21-3.91 21-10.03 6.96-26.49 1.22-26.49 1.22-30.4 20.02-30.4 20.02-26.49 13.75-26.49 24.02-14.21 34.11-26.49 27.44-26.49 27.44-30.4 45.8-30.4 45.8-26.49 40.19-26.49 26.49-9.99 26.49-3.91 33.33-3.91 33.33 0 14.4 0ZM28.25-5.37L28.25-9.35 41.11-24.78 47.56-24.78 47.56-29.15 48.54-29.15 48.54-23.85 41.6-23.85 29.27-9.03 29.27-5.37 28.25-5.37ZM24.49-16.55L17.48-24.78 21.78-24.78 21.78-29.15 22.75-29.15 22.75-23.85 19.53-23.85 25.1-17.31 24.49-16.55ZM29.03-23.85L29.03-24.78 31.25-24.78 30.49-23.85 29.03-23.85ZM2.81-23.85L2.81-24.78 6.96-24.78 7.76-23.85 2.81-23.85ZM15.87 1.71L35.08 1.71 35.08-2.54 36.06-2.54 36.06 2.64 15.87 2.64 15.87 1.71ZM52.27 0L52.27-3.91 58.64-3.91 58.64-26.49 51.9-26.49 51.9-30.4 69.43-30.4Q72.02-30.4 74.06-30.35 76.1-30.3 77.65-30.22 79.2-30.15 80.34-30.03 81.49-29.91 82.32-29.76L82.32-29.76Q84.32-29.39 85.73-28.71 87.13-28.03 88.01-27.08 88.89-26.12 89.29-24.94 89.69-23.75 89.69-22.39L89.69-22.39Q89.69-21.41 89.28-20.4 88.86-19.38 88-18.47 87.13-17.55 85.83-16.8 84.52-16.04 82.76-15.58L82.76-15.58Q84.54-15.36 85.95-14.71 87.35-14.06 88.32-13.12 89.28-12.18 89.78-11.01 90.28-9.84 90.28-8.57L90.28-8.57Q90.28-7.08 89.87-5.82 89.45-4.57 88.51-3.56 87.57-2.56 86.06-1.84 84.54-1.12 82.35-0.71L82.35-0.71Q79.98-0.27 76.91-0.13 73.85 0 69.85 0L69.85 0 52.27 0ZM53.83 1.71L69.85 1.71Q73.73 1.71 76.99 1.62 80.25 1.54 82.69 1.05L82.69 1.05Q85.42 0.51 87.23-0.5 89.04-1.51 90.1-2.81 91.16-4.1 91.59-5.62 92.01-7.13 92.01-8.67L92.01-8.67Q92.01-9.74 91.7-10.78 91.38-11.82 90.72-12.72 90.06-13.62 89.04-14.37 88.01-15.11 86.59-15.6L86.59-15.6Q89.11-16.85 90.28-18.54 91.45-20.24 91.45-22.39L91.45-22.39Q91.45-24.51 90.31-26.43 89.16-28.34 86.55-29.66L86.55-29.66Q88.01-29.3 89.11-28.6 90.21-27.91 90.95-26.98 91.7-26.05 92.06-24.93 92.43-23.8 92.43-22.58L92.43-22.58Q92.43-20.36 91.53-18.71 90.62-17.07 88.62-15.65L88.62-15.65Q90.96-14.4 91.98-12.61 92.99-10.82 92.99-8.67L92.99-8.67Q92.99-6.76 92.45-5.07 91.92-3.37 90.71-1.99 89.5-0.61 87.58 0.4 85.67 1.42 82.88 1.95L82.88 1.95Q80.42 2.44 77.23 2.54 74.05 2.64 69.85 2.64L69.85 2.64 53.83 2.64 53.83 1.71ZM64.21-16.97L73.26-16.97Q76.27-16.97 78.23-17.26 80.2-17.55 81.37-18.18 82.54-18.8 83.02-19.74 83.49-20.68 83.49-22L83.49-22Q83.49-23.32 82.66-24.37 81.83-25.42 80-25.98L80-25.98Q78.76-26.34 77.12-26.42 75.49-26.49 73.26-26.49L73.26-26.49 64.21-26.49 64.21-16.97ZM65.96-18.43L65.96-24.78 73.26-24.78Q75.12-24.78 76.46-24.69 77.81-24.61 78.76-24.39 79.71-24.17 80.37-23.82 81.03-23.46 81.54-22.92L81.54-22.92Q81.05-23.14 80.38-23.32 79.71-23.49 78.73-23.61 77.76-23.73 76.43-23.79 75.1-23.85 73.26-23.85L73.26-23.85 66.94-23.85 66.94-18.43 65.96-18.43ZM53.37-23.8L53.37-24.78 57.61-24.78 57.61-23.8 53.37-23.8ZM64.21-3.91L73.73-3.91Q76.24-3.91 78.05-4.04 79.86-4.17 81.17-4.66L81.17-4.66Q82-4.98 82.55-5.42 83.1-5.86 83.42-6.38 83.74-6.91 83.86-7.52 83.98-8.13 83.98-8.79L83.98-8.79Q83.98-10.4 82.99-11.58 82-12.77 79.93-13.38L79.93-13.38Q78.66-13.75 77.02-13.83 75.39-13.92 73.31-13.92L73.31-13.92 64.21-13.92 64.21-3.91ZM65.96-5.37L65.96-12.21 73.26-12.21Q75.12-12.21 76.54-12.08 77.95-11.96 78.99-11.71 80.03-11.45 80.76-11.07 81.49-10.69 82-10.16L82-10.16Q81.37-10.45 80.65-10.66 79.93-10.86 78.93-11.01 77.93-11.16 76.56-11.22 75.19-11.28 73.26-11.28L73.26-11.28 66.94-11.28 66.94-5.37 65.96-5.37Z" opacity="1" transform="matrix(1,0,0,1,0,0)" fill="#ff0000" class="undefined-text-0" data-fill-palette-color="primary" id="text-0"></path></svg></g></svg></g></svg></g></svg></g></svg></g></svg></g></svg></g><g><path d="M0 123.6c0-68.262 55.338-123.6 123.6-123.6 48.751 0 90.911 28.225 111.028 69.225l-4.438 0c-19.801-38.738-60.099-65.258-106.59-65.258-66.071 0-119.633 53.562-119.633 119.633 0 66.071 53.562 119.633 119.633 119.633 46.492 0 86.79-26.52 106.59-65.258h4.438c-20.117 41-62.277 69.225-111.028 69.225-68.262 0-123.6-55.338-123.6-123.6z" fill="#ff0000" stroke="transparent" data-fill-palette-color="tertiary"></path></g></svg></g><defs></defs></svg><rect width="395.52" height="247.2" fill="none" stroke="none" visibility="hidden"></rect></g></svg></g></svg>